<svg width="36" height="36" viewBox="0 0 36 36" fill="none" xmlns="http://www.w3.org/2000/svg">
<path d="M18 36C27.9411 36 36 27.9411 36 18C36 8.05888 27.9411 0 18 0C8.05888 0 0 8.05888 0 18C0 27.9411 8.05888 36 18 36Z" fill="#3A559F"/>
<path fill-rule="evenodd" clip-rule="evenodd" d="M20.589 35.8151C19.7436 35.9369 18.8791 35.9999 18 35.9999C16.5581 35.9999 15.1557 35.8304 13.8119 35.5101V23.2317H10.5886V17.526H13.8119V13.8338C13.8119 11.1935 15.0778 7.05908 20.6493 7.05908L25.6694 7.07989V12.6182H22.027C21.4295 12.6182 20.5894 12.9139 20.5894 14.1734V17.5313H25.6542L25.0621 23.2317H20.589V35.8151Z" fill="white"/>
</svg>
