<svg width="36" height="36" viewBox="0 0 36 36" fill="none" xmlns="http://www.w3.org/2000/svg">
<circle cx="18" cy="18" r="18" fill="url(#paint0_linear)"/>
<path d="M18.2503 7.01084C13.6423 7.01084 9.26656 6.60126 7.59519 10.8873C6.90482 12.6575 7.00508 14.9565 7.00508 18.2484C7.00508 21.1371 6.91244 23.852 7.59519 25.6083C9.26275 29.8968 13.674 29.486 18.2477 29.486C22.6603 29.486 27.2099 29.945 28.9016 25.6083C29.5932 23.8203 29.4917 21.5555 29.4917 18.2484C29.4917 13.8584 29.7341 11.0243 27.6033 8.89645C25.4459 6.74075 22.5283 7.01084 18.2452 7.01084H18.2503ZM17.2426 9.03594C26.8546 9.02072 28.0779 7.95302 27.4028 22.7855C27.1629 28.0315 23.1654 27.4558 18.2515 27.4558C9.29194 27.4558 9.03432 27.1997 9.03432 18.2433C9.03432 9.18304 9.74499 9.04101 17.2426 9.0334V9.03594ZM24.253 10.9013C23.508 10.9013 22.9039 11.5049 22.9039 12.2492C22.9039 12.9936 23.508 13.5972 24.253 13.5972C24.9979 13.5972 25.602 12.9936 25.602 12.2492C25.602 11.5049 24.9979 10.9013 24.253 10.9013V10.9013ZM18.2503 12.4775C15.0611 12.4775 12.476 15.0618 12.476 18.2484C12.476 21.4351 15.0611 24.0181 18.2503 24.0181C21.4394 24.0181 24.0233 21.4351 24.0233 18.2484C24.0233 15.0618 21.4394 12.4775 18.2503 12.4775V12.4775ZM18.2503 14.5026C23.206 14.5026 23.2123 21.9943 18.2503 21.9943C13.2958 21.9943 13.2882 14.5026 18.2503 14.5026Z" fill="white"/>
<defs>
<linearGradient id="paint0_linear" x1="2.4171" y1="33.6546" x2="35.7736" y2="4.77931" gradientUnits="userSpaceOnUse">
<stop stop-color="#FFDD55"/>
<stop offset="0.5" stop-color="#FF543E"/>
<stop offset="1" stop-color="#C837AB"/>
</linearGradient>
</defs>
</svg>
