<svg width="36" height="36" viewBox="0 0 36 36" fill="none" xmlns="http://www.w3.org/2000/svg">
<path d="M18 36C27.9411 36 36 27.9411 36 18C36 8.05887 27.9411 0 18 0C8.05887 0 0 8.05887 0 18C0 27.9411 8.05887 36 18 36Z" fill="#039BE5"/>
<path d="M8.23653 17.6098L25.5915 10.9183C26.397 10.6273 27.1005 11.1148 26.8395 12.3328L26.841 12.3313L23.886 26.2528C23.667 27.2398 23.0805 27.4798 22.26 27.0148L17.76 23.6983L15.5895 25.7893C15.3495 26.0293 15.147 26.2318 14.682 26.2318L15.0015 21.6523L23.3415 14.1178C23.7045 13.7983 23.2605 13.6183 22.782 13.9363L12.4755 20.4253L8.03253 19.0393C7.06803 18.7333 7.04703 18.0748 8.23653 17.6098V17.6098Z" fill="white"/>
</svg>
