<svg width="36" height="36" viewBox="0 0 36 36" fill="none" xmlns="http://www.w3.org/2000/svg">
<path d="M18 36C27.9411 36 36 27.9411 36 18C36 8.05888 27.9411 0 18 0C8.05888 0 0 8.05888 0 18C0 27.9411 8.05888 36 18 36Z" fill="#4D76A1"/>
<path fill-rule="evenodd" clip-rule="evenodd" d="M17.3201 25.895H18.7328C18.7328 25.895 19.1596 25.8481 19.3775 25.6132C19.578 25.3976 19.5716 24.9927 19.5716 24.9927C19.5716 24.9927 19.544 23.097 20.4238 22.8178C21.2911 22.5429 22.4049 24.65 23.5853 25.4602C24.478 26.0734 25.1563 25.9389 25.1563 25.9389L28.3127 25.895C28.3127 25.895 29.9638 25.7932 29.1809 24.495C29.1167 24.3888 28.725 23.5347 26.8341 21.7795C24.855 19.9425 25.12 20.2397 27.5041 17.0621C28.956 15.127 29.5364 13.9455 29.3552 13.4395C29.1822 12.9576 28.1144 13.085 28.1144 13.085L24.5604 13.1071C24.5604 13.1071 24.297 13.0712 24.1016 13.188C23.9107 13.3025 23.7878 13.5695 23.7878 13.5695C23.7878 13.5695 23.2253 15.067 22.4751 16.3405C20.8926 19.0278 20.2599 19.1696 20.0012 19.0027C19.3996 18.6138 19.5498 17.4404 19.5498 16.6068C19.5498 14.0027 19.9448 12.9168 18.7807 12.6358C18.3943 12.5424 18.11 12.4808 17.1221 12.4708C15.854 12.4577 14.7807 12.4747 14.173 12.7725C13.7687 12.9704 13.4568 13.4116 13.6468 13.437C13.8817 13.4684 14.4137 13.5804 14.6957 13.9645C15.0599 14.4599 15.047 15.5727 15.047 15.5727C15.047 15.5727 15.2563 18.6382 14.5584 19.0191C14.0793 19.2803 13.4222 18.747 12.0113 16.309C11.2884 15.0602 10.7426 13.6799 10.7426 13.6799C10.7426 13.6799 10.6374 13.4219 10.4497 13.2839C10.2219 13.1167 9.90355 13.0635 9.90355 13.0635L6.52643 13.0856C6.52643 13.0856 6.01946 13.0997 5.83335 13.3202C5.66779 13.5162 5.8202 13.9218 5.8202 13.9218C5.8202 13.9218 8.46414 20.1075 11.4578 23.2247C14.2028 26.0827 17.3201 25.895 17.3201 25.895Z" fill="white"/>
</svg>
