<svg width="36" height="36" viewBox="0 0 36 36" fill="none" xmlns="http://www.w3.org/2000/svg">
<circle cx="18" cy="18" r="18" fill="#FF0000"/>
<path d="M29.1677 24.0317C28.8995 25.0284 28.1137 25.814 27.1172 26.0823C25.2967 26.5806 18.0144 26.5806 18.0144 26.5806C18.0144 26.5806 10.7323 26.5806 8.91175 26.1013C7.93446 25.8331 7.12952 25.0282 6.86132 24.0317C6.38226 22.2113 6.38226 18.436 6.38226 18.436C6.38226 18.436 6.38226 14.6417 6.86132 12.8403C7.1297 11.8439 7.91529 11.0581 8.91192 10.7897C10.7515 10.2915 18.0146 10.2915 18.0146 10.2915C18.0146 10.2915 25.2967 10.2915 27.1172 10.7707C28.1139 11.0389 28.8995 11.8247 29.1678 12.8211C29.6469 14.6417 29.6469 18.4169 29.6469 18.4169C29.6469 18.4169 29.6661 22.2113 29.1677 24.0317Z" fill="white"/>
<path d="M15.6958 14.9478L21.7515 18.4355L15.6958 21.9233V14.9478Z" fill="#FF0000"/>
</svg>
