<svg width="20" height="20" viewBox="0 0 20 20" fill="none" xmlns="http://www.w3.org/2000/svg">
<path d="M0 10C0 12.6522 1.05357 15.1957 2.92893 17.0711C4.8043 18.9464 7.34784 20 10 20C12.6522 20 15.1957 18.9464 17.0711 17.0711C18.9464 15.1957 20 12.6522 20 10C20 7.34784 18.9464 4.8043 17.0711 2.92893C15.1957 1.05357 12.6522 0 10 0C7.34784 0 4.8043 1.05357 2.92893 2.92893C1.05357 4.8043 0 7.34784 0 10ZM11.6016 15.0391C11.2344 15.4062 10.6406 15.4062 10.2773 15.0391C9.91406 14.6719 9.91016 14.0781 10.2773 13.7148L13.0508 10.9414L4.6875 10.9375C4.16797 10.9375 3.75 10.5195 3.75 10C3.75 9.48047 4.16797 9.0625 4.6875 9.0625H13.0508L10.2773 6.28906C9.91016 5.92188 9.91016 5.32812 10.2773 4.96484C10.6445 4.60156 11.2383 4.59766 11.6016 4.96484L15.9766 9.33594C16.3437 9.70312 16.3437 10.2969 15.9766 10.6602L11.6016 15.0391Z" fill="#6F7FB1"/>
</svg>
