<?xml version="1.0" encoding="UTF-8"?> <!-- Generator: Adobe Illustrator 24.1.2, SVG Export Plug-In . SVG Version: 6.00 Build 0) --> <svg xmlns="http://www.w3.org/2000/svg" xmlns:xlink="http://www.w3.org/1999/xlink" id="Слой_1" x="0px" y="0px" viewBox="0 0 113.8 30.8" style="enable-background:new 0 0 113.8 30.8;" xml:space="preserve"> <style type="text/css"> .st0{fill:#882146;} .st1{fill:#FFFFFF;} </style> <g> <rect class="st0" width="113.8" height="30.8"></rect> <g> <path class="st1" d="M18.9,17.6v1.9c0,4.7-2.2,6.8-6.8,6.8c-4.6,0-6.8-2-6.8-6.8v-9.1c0-3.3,2-5.9,6.8-5.9c4.7,0,6.8,2.7,6.8,5.9 v1.4h-5V10c0-1.1-1-1.6-1.8-1.6c-0.8,0-1.7,0.5-1.7,1.5v10.4c0,1.6,0.7,2.2,1.7,2.2c1.1,0,1.8-0.6,1.8-2.2v-2.8H18.9z"></path> <path class="st1" d="M28.6,5l1.6,8.5c0.3,1.7,0.5,4.6,0.8,6.6h0.1c0.2-1.9,0.5-5.1,0.8-6.6L33.5,5h7v20.9h-4.8v-7.3 c0-2,0.1-7.4,0.3-9.1h0l-3.1,16.4h-3.5L26.2,9.4h0c0.1,1.5,0.3,6.3,0.3,9.1v7.4h-4.8V5H28.6z"></path> <path class="st1" d="M52.6,5l4.6,20.9h-4.9l-0.8-4.2h-3.8l-0.6,4.2h-5L46.6,5H52.6z M50.9,17.9l-1.3-9.2h0l-1.3,9.2H50.9z"></path> <path class="st1" d="M63.9,25.9h-5V5h7.3c2.9,0,6.1,1,6.1,6.4c0,5.2-3.1,6.4-6.1,6.4h-2.3V25.9z M63.9,14h0.9 c1.3,0,2.4-0.6,2.4-2.7s-1.1-2.6-2.5-2.6h-0.8V14z"></path> <path class="st1" d="M82.5,25.9h-4.6V8.9h-4V5h12.3v4h-3.7V25.9z"></path> <path class="st1" d="M95.2,15.2v3.2h-7.6v-3.2H95.2z"></path> <path class="st1" d="M105.1,25.9h-4.6V8.9h-4V5h12.3v4h-3.7V25.9z"></path> </g> </g> </svg> 