<svg width="99" height="99" viewBox="0 0 99 99" fill="none" xmlns="http://www.w3.org/2000/svg">
<path d="M86.7553 62.5763L77.9976 47.4887C79.6451 44.8007 80.5122 42.1994 80.5122 39.9449C80.5122 35.0024 75.483 30.6669 68.1127 29.1929V26.8517C68.1127 26.2447 67.5924 25.7245 66.9854 25.7245H65.9449V22.7763C65.9449 13.4116 58.3144 5.78113 48.9497 5.78113C39.585 5.78113 31.9545 13.4116 31.9545 22.7763V25.7245H30.914C30.3071 25.7245 29.7868 26.2447 29.7868 26.8517V29.1929C22.4164 30.6669 17.3872 35.0024 17.3872 39.9449C17.3872 42.1994 18.3411 44.8007 19.9018 47.4887L11.1441 62.5763C8.54279 66.9985 8.54279 74.1954 11.1441 78.6176L11.5776 79.3113C14.1789 83.7335 20.7689 87.2886 26.4051 87.2886H71.3209C76.9571 87.2886 83.547 83.7335 86.1483 79.3113L86.5819 78.6176C89.2699 74.1954 89.2699 66.9985 86.7553 62.5763ZM34.2957 22.863C34.2957 14.7123 40.8857 8.1223 49.0364 8.1223C57.1872 8.1223 63.7771 14.7123 63.7771 22.863V25.8112H61.6094V22.863C61.6094 15.9262 55.9732 10.2901 49.0364 10.2901C42.0996 10.2901 36.4635 15.9262 36.4635 22.863V25.8112H34.2957V22.863ZM65.9449 28.0656V35.2626H59.7885V28.0656H65.9449ZM39.4116 25.8112H38.718V22.863C38.718 17.1402 43.3136 12.5445 49.0364 12.5445C54.7593 12.5445 59.3549 17.1402 59.3549 22.863V25.8112H58.6613C58.0543 25.8112 57.534 26.3314 57.534 26.9384V28.7593H40.5388V26.9384C40.5388 26.3314 40.0186 25.8112 39.4116 25.8112ZM32.128 28.0656H38.2844V35.2626H32.128V28.0656ZM19.7284 40.0316C19.7284 36.3031 23.9772 32.8347 29.8735 31.534V36.3031C29.8735 36.9101 30.3938 37.4303 31.0007 37.4303H39.3249C39.9319 37.4303 40.4522 36.9101 40.4522 36.3031V30.9271H57.534V36.3031C57.534 36.9101 58.0543 37.4303 58.6613 37.4303H66.9854C67.5924 37.4303 68.1127 36.9101 68.1127 36.3031V31.534C74.0956 32.8347 78.2577 36.3031 78.2577 40.0316C78.2577 45.2342 71.8412 53.2983 64.2974 57.6338L62.91 58.4142C55.1928 62.8364 42.7066 62.8364 34.9894 58.4142L33.602 57.6338C26.145 53.2983 19.7284 45.2342 19.7284 40.0316ZM84.8477 77.4904L84.4141 78.1841C82.2464 81.9126 76.3501 85.1209 71.4944 85.1209H26.5785C21.7228 85.1209 15.8265 81.9993 13.6587 78.1841L13.2252 77.4904C11.0574 73.7619 11.0574 67.432 13.2252 63.7035L21.4626 49.5697C24.2373 53.385 28.1393 57.0268 32.5615 59.5414L33.9489 60.3218C38.111 62.7497 43.5737 63.9636 48.9497 63.9636C54.4125 63.9636 59.8752 62.7497 64.0373 60.3218L65.4247 59.5414C69.8469 57.0268 73.8355 53.2983 76.5235 49.5697L84.761 63.7035C87.0155 67.432 87.0154 73.7619 84.8477 77.4904Z" fill="black"/>
<path d="M68.1125 31.534V36.3031C68.1125 36.9101 67.5922 37.4303 66.9853 37.4303H58.6611C58.0541 37.4303 57.5338 36.9101 57.5338 36.3031V30.9271H40.5387V36.3031C40.5387 36.9101 40.0184 37.4303 39.4115 37.4303H31.0873C30.4803 37.4303 29.96 36.9101 29.96 36.3031V31.534C23.977 32.8347 19.8149 36.3031 19.8149 40.0316C19.8149 45.2342 26.2315 53.2983 33.7753 57.6338L35.1626 58.4142C42.8798 62.8364 55.3661 62.8364 63.0833 58.4142L64.4707 57.6338C72.0144 53.2983 78.431 45.2342 78.431 40.0316C78.3443 36.3031 74.0955 32.8347 68.1125 31.534ZM49.0363 56.1597C45.4811 56.1597 42.6197 53.2983 42.6197 49.7432C42.6197 46.188 45.4811 43.3266 49.0363 43.3266C52.5914 43.3266 55.4528 46.188 55.4528 49.7432C55.4528 53.2983 52.5914 56.1597 49.0363 56.1597Z" fill="#F1BB2F"/>
<path d="M49.0364 43.3266C45.4813 43.3266 42.6199 46.188 42.6199 49.7431C42.6199 53.2983 45.4813 56.1597 49.0364 56.1597C52.5915 56.1597 55.453 53.2983 55.453 49.7431C55.453 46.188 52.5915 43.3266 49.0364 43.3266ZM49.0364 53.9919C46.6952 53.9919 44.7876 52.0843 44.7876 49.7431C44.7876 47.402 46.6952 45.4944 49.0364 45.4944C51.3776 45.4944 53.2852 47.402 53.2852 49.7431C53.2852 52.0843 51.3776 53.9919 49.0364 53.9919Z" fill="black"/>
<path d="M51.6377 50.8704C52.2447 50.8704 52.7649 50.3501 52.7649 49.7431C52.7649 49.1362 52.2447 48.6159 51.6377 48.6159H46.4351C45.8281 48.6159 45.3079 49.1362 45.3079 49.7431C45.3079 50.3501 45.8281 50.8704 46.4351 50.8704H51.6377Z" fill="black"/>
<path d="M49.0364 77.4904C52.5048 77.4904 55.3662 74.629 55.3662 71.1606V70.12C55.3662 69.5131 54.846 68.9928 54.239 68.9928C53.632 68.9928 53.1118 69.5131 53.1118 70.12V71.1606V71.2473H44.8743V71.1606V70.12C44.8743 69.5131 44.3541 68.9928 43.7471 68.9928C43.1401 68.9928 42.6199 69.5131 42.6199 70.12V71.1606C42.7066 74.629 45.568 77.4904 49.0364 77.4904ZM52.5048 73.415C51.7244 74.5422 50.5105 75.2359 49.0364 75.2359C47.5623 75.2359 46.3484 74.5422 45.568 73.415H52.5048Z" fill="black"/>
</svg>
