<svg width="100" height="99" viewBox="0 0 100 99" fill="none" xmlns="http://www.w3.org/2000/svg">
<path d="M77.5674 69.9133H77.3922V69.7381C76.8665 65.0947 76.6037 62.554 76.5161 60.977V60.8018C76.4285 59.9257 76.3409 59.0496 76.2533 58.2611C76.1656 57.823 76.078 57.385 75.9904 56.8593C75.9028 56.4213 75.8152 55.8956 75.7276 55.4575C75.64 55.0195 75.5524 54.669 75.4648 54.3186V54.1434C74.7639 50.5513 74.5887 44.6814 75.1143 36.7965C75.3772 33.7301 74.3258 30.6637 72.3984 28.5611C70.909 26.9841 69.0692 26.108 67.1418 26.108H58.9064V22.6036H61.1842C62.4108 22.6036 63.6373 22.0779 64.4258 21.2018C65.0391 20.4133 65.3019 19.5372 65.0391 18.5735L62.4108 7.53453C62.0603 5.95754 60.3957 4.8186 58.5559 4.8186H42.2603C40.4205 4.8186 38.7559 5.95754 38.4055 7.53453L36.04 18.5735C35.7771 19.5372 36.04 20.4133 36.6533 21.2018C37.3541 22.0779 38.5807 22.6036 39.8948 22.6036H42.1727V26.108H34.5506C32.7984 26.1956 31.1338 26.9841 29.6444 28.4735C27.717 30.5761 26.7533 33.5549 26.9285 36.5337C27.2789 43.3673 26.9285 48.6239 25.6143 52.5664L25.5267 52.8292C25.4391 53.0921 25.3515 53.5301 25.2639 53.8806C25.1763 54.231 25.0887 54.5814 25.001 54.9319C24.563 56.5089 24.2125 58.0859 23.8621 59.7505V59.8381C23.3364 62.9045 23.5993 66.6717 23.8621 69.5629V69.8257H23.4241C18.6931 70.9646 17.0285 77.0974 17.6418 80.9522C17.9922 83.493 19.394 85.3328 20.971 87.1726L21.0586 87.3478C23.4241 90.239 26.2276 92.5168 29.5568 94.1814C29.732 94.3567 29.9072 94.3567 30.1701 94.3567H70.8214C70.909 94.3567 70.9966 94.2691 71.0842 94.2691H71.1718C74.501 92.5168 77.3046 90.239 79.6701 87.4354C81.2471 85.5956 82.6488 83.7558 83.0869 81.0398C83.5249 77.0974 81.948 71.1398 77.5674 69.9133ZM39.8072 20.0629C39.3692 20.0629 38.9311 19.8876 38.6683 19.6248V19.5372C38.5807 19.362 38.5807 19.2744 38.5807 19.1867L41.0338 8.14781C41.0338 7.88498 41.4718 7.44692 42.2603 7.44692H58.6435C59.5196 7.44692 59.8701 7.88498 59.9577 8.23542L62.3232 19.2744C62.3232 19.362 62.3232 19.5372 62.1479 19.7124C61.9727 19.9752 61.5347 20.1505 60.9214 20.1505H39.8072V20.0629ZM56.1028 22.6912V26.1956H44.6258V22.6912H56.1028ZM37.1789 28.7363H63.6373V47.3098H37.1789V28.7363ZM37.1789 49.9381H63.6373V73.7682H37.1789V49.9381ZM30.2577 91.7283L29.9072 91.5531C27.1913 89.9761 24.8258 87.9611 22.8984 85.6832C21.3214 83.7558 20.2701 82.4416 20.0948 80.6018C19.6568 77.623 20.8833 72.9797 24.0373 72.3664C26.2276 71.9283 28.7683 73.3301 30.2577 75.8708V75.9584V91.7283ZM31.8347 73.5053C30.4329 71.6655 28.6807 70.3513 26.578 69.8257H26.4028V69.6505C26.2276 68.3363 25.7895 63.6929 26.3152 60.1009V59.8381C26.4028 59.2248 26.7533 57.5602 27.3665 55.4575C27.4541 55.1071 27.5418 54.8443 27.6294 54.5814C27.717 54.1434 27.8922 53.8806 27.8922 53.6177L27.9798 53.3549C29.294 48.7991 29.732 43.1921 29.294 36.446C29.1187 34.0806 29.9072 31.7151 31.3966 30.2257C32.0099 29.6124 33.0612 28.8239 34.3754 28.6487H34.6382V73.5929H31.9223L31.8347 73.5053ZM67.9302 91.4655H67.755V91.7283H32.7984V76.6593L32.886 76.5717C32.886 76.5717 32.9736 76.3965 32.9736 76.3089V76.2213H67.9302V91.4655ZM69.0692 73.5929L68.9816 73.6806H66.0028V28.7363H66.9665C68.5435 28.7363 69.6825 29.6124 70.2957 30.3133C71.6975 31.8027 72.486 34.0806 72.3108 36.6213C71.7851 45.0319 71.9603 50.9894 72.8364 54.8443V55.0195C72.9241 55.2823 73.0117 55.5452 73.0993 56.0708C73.1869 56.5089 73.2745 56.9469 73.3621 57.385C73.4497 57.823 73.5373 58.2611 73.6249 58.6115C73.8002 59.4 73.8878 60.3637 73.8878 61.2398C73.9754 62.6416 74.2382 65.2699 74.6763 69.7381V69.9133H74.501C72.3984 70.3514 70.471 71.6655 69.0692 73.5929ZM80.371 80.5142C80.1081 82.354 79.0568 83.6682 77.5674 85.5956C75.8152 87.7859 73.5373 89.7133 70.909 91.2903L70.5586 91.4655V76.3089C71.6975 74.031 73.8002 72.454 75.8152 72.3664C75.9028 72.3664 75.9904 72.3664 76.078 72.454C76.1656 72.454 76.1656 72.454 76.1656 72.454H76.4285C77.3922 72.6292 78.1807 73.1549 78.8816 74.031C80.2833 75.8708 80.7214 78.6744 80.371 80.5142Z" fill="black"/>
<path d="M63.6374 28.7363H37.179V47.3098H63.6374V28.7363Z" fill="#F1BB2F"/>
</svg>
