<svg width="99" height="99" viewBox="0 0 99 99" fill="none" xmlns="http://www.w3.org/2000/svg">
<path d="M24.9369 37.1354L24.8502 48.2343V49.0147L24.5901 81.531V83.2652V87.3406V88.121C24.5901 88.6412 24.1565 88.9881 23.723 88.9881C23.6362 88.9881 23.6363 88.9881 23.5496 88.9881C23.5496 88.9881 23.4628 88.9881 23.3761 88.9881H23.2894C23.2894 88.9881 23.2027 88.9881 23.2027 88.9013L23.116 88.8146L23.0293 88.7279C22.9426 88.5545 22.8559 88.4678 22.8559 88.2944L23.0293 62.4548L23.116 49.0147L23.2027 37.2221C23.2027 36.7886 22.9426 28.9846 16.0925 27.4239C15.9191 27.3372 15.6589 27.3372 15.4855 27.3372C14.9652 27.2504 14.7051 26.8169 14.7918 26.2966C14.7918 26.2099 14.7918 26.1232 14.8785 26.0365C14.8785 25.9498 14.9652 25.8631 14.9652 25.8631C15.1386 25.603 15.4855 25.5162 15.8323 25.603C16.2659 25.6897 16.6994 25.7764 17.133 25.8631C20.2545 26.7302 22.5957 28.8112 23.8964 32.0195C24.4166 33.5803 24.8502 35.3145 24.9369 37.1354Z" fill="black" stroke="black" stroke-width="0.25" stroke-miterlimit="10"/>
<path d="M83.6393 26.2099C83.7261 26.7302 83.3792 27.1637 82.859 27.2504C82.7722 27.2504 82.5988 27.2504 82.252 27.3371C81.4716 27.5105 80.0842 27.9441 78.7836 28.8979C76.876 30.2853 74.9683 32.7132 74.9683 37.1354L75.1418 48.4077L75.4019 62.7149L75.8354 88.2076C75.8354 88.2943 75.8354 88.4678 75.7487 88.5545C75.7487 88.6412 75.7487 88.6412 75.662 88.7279L75.5753 88.8146L75.4886 88.9013C75.4886 88.9013 75.4886 88.9013 75.4019 88.988C75.4019 88.988 75.4019 88.988 75.3152 88.988H75.2285H75.1418C75.0551 88.988 75.055 88.988 74.9683 88.988C74.4481 88.988 74.1012 88.6412 74.1012 88.1209V87.3405L74.0145 83.3519V81.6177L73.4076 48.5811C73.4076 48.4944 73.4076 48.4944 73.4076 48.4077L73.2341 37.1354C73.2341 31.6726 75.8354 28.8112 78.0032 27.3371C79.0437 26.6434 80.1709 26.1232 81.3849 25.7763C81.8184 25.6029 82.252 25.5162 82.6855 25.4295C83.0324 25.4295 83.2925 25.5162 83.4659 25.6896C83.5526 25.7763 83.5526 25.8631 83.6393 25.9498C83.6393 26.1232 83.6393 26.1232 83.6393 26.2099Z" fill="black" stroke="black" stroke-width="0.25" stroke-miterlimit="10"/>
<path d="M18.7803 85.4329C18.6936 85.4329 18.6936 85.4329 18.6069 85.4329L7.42125 83.6987C6.90099 83.612 6.64087 83.1784 6.64087 82.6581C6.72758 82.1379 7.16111 81.8777 7.68137 81.8777L18.867 83.6119C19.3872 83.6987 19.6474 84.1322 19.6474 84.6525C19.5607 85.086 19.2138 85.4329 18.7803 85.4329Z" fill="black" stroke="black" stroke-width="0.25" stroke-miterlimit="10"/>
<path d="M79.4772 85.4329C78.9569 85.4329 78.6101 84.9994 78.6101 84.5658C78.6101 84.1323 78.9569 83.7854 79.3905 83.6987L90.5761 81.9645C91.0964 81.8778 91.5299 82.2246 91.6166 82.7449C91.7033 83.2652 91.3565 83.6987 90.8362 83.7854L79.6506 85.5196C79.5639 85.4329 79.5639 85.4329 79.4772 85.4329Z" fill="black" stroke="black" stroke-width="0.25" stroke-miterlimit="10"/>
<path d="M75.8356 88.1209C75.8356 88.2944 75.8356 88.3811 75.7489 88.5545C75.7489 88.6412 75.7489 88.6412 75.6622 88.7279L75.5755 88.8146L75.4888 88.9013C75.4888 88.9013 75.4888 88.9013 75.4021 88.988C75.4021 88.988 75.4021 88.988 75.3154 88.988H75.2286H75.142C75.142 88.988 75.142 88.988 75.0552 88.988C63.6095 90.202 55.1986 90.5488 55.1119 90.5488C54.6784 90.5488 54.2448 90.202 54.2448 89.6817L54.0714 86.3L53.9847 84.5658L53.8113 79.9702L53.7245 78.236L51.21 24.4757C51.21 24.389 51.21 24.389 51.21 24.3023C51.2967 23.8687 51.6435 23.5219 52.0771 23.5219C52.3372 23.5219 52.684 23.5219 52.9442 23.5219C55.979 23.3485 58.4069 22.3947 60.0544 20.6605C62.6557 17.9724 62.7424 14.0705 62.7424 13.1167L60.5746 9.21473V9.12802C60.5746 9.12802 60.5746 9.12802 60.5746 9.04131C60.4012 8.69447 59.9677 8.0875 59.4474 8.0875H39.3307C38.8104 8.0875 38.3769 8.78118 38.2034 9.04131C38.2034 9.12802 38.1167 9.12802 38.1167 9.12802V9.21473L35.949 13.1167C35.949 13.9838 36.0357 17.8857 38.637 20.6605C40.2845 22.4814 42.7124 23.4352 45.8339 23.5219C46.0941 23.5219 46.3542 23.5219 46.6143 23.5219C47.1346 23.5219 47.4814 23.9554 47.4814 24.389V24.4757L44.9668 78.236L44.8801 79.9702L44.7067 83.8721V84.219V84.6525L44.62 86.3867L44.4466 89.7684C44.4466 90.2887 44.013 90.6355 43.4928 90.6355C43.4061 90.6355 34.9952 90.2887 23.5494 88.988H23.4627C23.4627 88.988 23.376 88.988 23.2893 88.988H23.2026C23.2026 88.988 23.1159 88.988 23.1159 88.9013L23.0292 88.8146L22.9425 88.7279C22.8557 88.5545 22.769 88.3811 22.8557 88.1209C22.9424 87.6874 23.376 87.3405 23.8096 87.3405C24.0697 87.3405 24.3298 87.4273 24.5899 87.4273C29.0989 87.8608 33.0008 88.2076 36.2091 88.4678C36.8161 88.4678 37.423 88.5545 37.9433 88.5545C40.111 88.7279 41.8453 88.8146 42.7124 88.8146L42.8858 85.5196V84.826L42.9725 83.0918L45.6605 25.3428C42.1054 25.1694 39.3307 24.0422 37.3363 21.8744C34.9952 19.4465 34.3882 16.2382 34.2148 14.4173C34.1281 13.5502 34.2148 12.9433 34.2148 12.8566C34.2148 12.6831 34.3015 12.5964 34.3015 12.5097L34.3882 12.3363L36.6426 8.43434C36.7294 8.26092 37.0762 7.65394 37.5965 7.13368C37.7699 6.96026 37.9433 6.78684 38.2034 6.70013C38.5503 6.52671 38.8971 6.44 39.3307 6.44H59.4474C59.881 6.44 60.2278 6.52671 60.5746 6.70013C60.8348 6.87355 61.0949 7.04697 61.2683 7.22039C61.7886 7.74065 62.0487 8.26092 62.1354 8.52105L64.3032 12.423L64.3899 12.5964C64.4766 12.6831 64.4766 12.8566 64.4766 12.9433C64.4766 13.03 64.4766 13.6369 64.3899 14.504C64.2165 16.325 63.6095 19.4465 61.2683 21.9611C59.274 24.1289 56.4993 25.2561 52.9442 25.4295L55.6322 83.1785L55.7189 84.9994V85.6931L55.8923 88.988C56.7594 88.988 58.4069 88.9013 60.4879 88.7279C61.0082 88.7279 61.6152 88.6412 62.3088 88.6412C65.5171 88.3811 69.5058 88.0342 74.1014 87.6007C74.3616 87.6007 74.6217 87.514 74.8818 87.514C75.4021 87.2538 75.8356 87.6007 75.8356 88.1209Z" fill="black" stroke="black" stroke-width="0.25" stroke-miterlimit="10"/>
<path d="M34.9951 13.897L34.128 14.4173L23.2026 20.4003C23.1159 20.4003 19.474 22.3079 16.9595 25.7763C16.6126 26.2966 16.2658 26.8169 16.0056 27.3371C15.3987 28.4643 15.0518 29.5916 14.8784 30.9789L8.46184 82.0512L8.37516 82.8316V83.7854L8.28844 89.595L16.0056 90.8956L17.8266 85.2595L18.0867 84.3924L18.1734 83.612L23.0292 48.9279L23.1159 48.4944C23.2026 47.9741 23.6361 47.714 24.1564 47.714C24.5032 47.8007 24.7634 47.9741 24.8501 48.321C24.8501 48.4944 24.9368 48.5811 24.8501 48.7545V49.1014L22.9424 62.368L19.8209 84.7392C19.8209 84.8259 19.8209 84.8259 19.8209 84.9126L17.393 92.283C17.3063 92.6298 16.9595 92.89 16.5259 92.89C16.4392 92.89 16.4392 92.89 16.3525 92.89L7.0745 91.3292C6.64095 91.2425 6.2941 90.8956 6.38081 90.4621L6.55424 82.9183V82.8316L13.1442 30.8922C13.3176 29.2447 13.8379 27.5972 14.705 26.1232C14.705 26.0365 14.7917 25.9498 14.7917 25.9498C15.5721 24.5624 16.6993 23.2617 18 22.0478C19.3006 20.8339 20.7747 19.7933 22.2488 19.0129L34.0413 12.5097C34.128 12.5097 34.1281 12.423 34.2148 12.423C34.6483 12.3363 35.0819 12.423 35.2553 12.8565C35.6021 13.1167 35.4287 13.6369 34.9951 13.897Z" fill="black" stroke="black" stroke-width="0.25" stroke-miterlimit="10"/>
<path d="M92.0503 90.4621C92.0503 90.8957 91.7902 91.3292 91.3566 91.3292L81.7318 92.89C81.7318 92.89 81.6451 92.89 81.5584 92.89C81.1249 92.89 80.778 92.6299 80.6913 92.1963L78.6103 84.6525V84.5658L75.402 62.6282L73.4077 48.4944C73.4077 48.4077 73.4077 48.4077 73.4077 48.321C73.4077 47.8874 73.7545 47.5406 74.188 47.4539C74.7083 47.3672 75.1418 47.714 75.2285 48.2343V48.321L80.2577 83.4386L80.3445 84.3057L80.6046 85.1728L82.2521 90.9824L90.3161 89.6817L90.056 83.6987L89.9693 82.7449L89.8826 81.9645L83.3793 30.979C83.2059 29.6783 82.859 28.4644 82.2521 27.3371C81.9919 26.7302 81.6451 26.2099 81.2983 25.7764C78.8704 22.308 75.1419 20.487 75.0551 20.4003L64.3898 14.4173L63.1758 13.7237C62.7423 13.4635 62.5689 12.9433 62.829 12.5097C63.0891 12.0762 63.6094 11.9027 64.0429 12.1629L64.2164 12.2496L75.8355 18.7528C77.3963 19.6199 78.8704 20.5738 80.0843 21.7877C81.385 23.0016 82.5122 24.3023 83.2926 25.6896C83.3793 25.7764 83.3793 25.8631 83.466 25.9498C84.3331 27.5106 84.8534 29.0713 85.0268 30.6321L91.5301 82.4848V82.5715L92.0503 90.4621Z" fill="black" stroke="black" stroke-width="0.25" stroke-miterlimit="10"/>
<path d="M46.5275 25.2561C46.4408 25.2561 46.4408 25.2561 46.354 25.2561C45.8338 25.1694 45.5737 24.6491 45.6604 24.2156C45.8338 23.4352 45.7471 22.4814 45.4002 21.5275C45.1401 20.8339 44.7066 20.1402 44.273 19.4465C44.0996 19.1864 43.9262 18.9262 43.7527 18.6661L37.5096 8.00077C37.2495 7.56722 37.3362 7.04696 37.7697 6.78683C38.2033 6.5267 38.7236 6.61341 38.9837 7.04696L39.0704 7.13367L45.3135 17.799C45.4869 18.0591 45.6604 18.3193 45.7471 18.5794C46.2673 19.3598 46.7009 20.1402 46.961 20.9206C47.3079 21.7877 47.6547 23.175 47.3079 24.6491C47.3079 24.996 46.961 25.2561 46.5275 25.2561Z" fill="black" stroke="black" stroke-width="0.25" stroke-miterlimit="10"/>
<path d="M52.0769 25.2561C51.6434 25.2561 51.2965 24.9959 51.2098 24.5624C50.863 23.0883 51.2098 21.7877 51.5567 20.8339C51.9035 19.9667 52.3371 19.1864 52.7706 18.4927C52.944 18.2325 53.1174 17.9724 53.2042 17.7123L59.4473 7.04694C59.6207 6.61339 60.2277 6.43997 60.6612 6.61339C61.0948 6.78681 61.2682 7.39378 61.0948 7.82733C61.0948 7.82733 61.0948 7.91404 61.0081 7.91404L54.7649 18.5794C54.5915 18.8395 54.4181 19.0996 54.2447 19.3598C53.8111 19.9668 53.4643 20.6604 53.1174 21.4408C52.7706 22.3946 52.6839 23.3484 52.8573 24.1288C52.944 24.6491 52.6839 25.0826 52.1636 25.1694C52.2504 25.2561 52.1636 25.2561 52.0769 25.2561Z" fill="black" stroke="black" stroke-width="0.25" stroke-miterlimit="10"/>
<path d="M56.6725 14.4173H41.9318C41.4115 14.4173 41.0647 13.9838 41.0647 13.5502C41.0647 13.0299 41.4982 12.6831 41.9318 12.6831H56.6725C57.1928 12.6831 57.5396 13.1167 57.5396 13.5502C57.5396 14.0705 57.1928 14.4173 56.6725 14.4173Z" fill="black" stroke="black" stroke-width="0.25" stroke-miterlimit="10"/>
<path d="M54.8518 86.3867H43.6662C43.1459 86.3867 42.7991 85.9532 42.7991 85.5196C42.7991 84.9994 43.2326 84.6525 43.6662 84.6525H54.8518C55.372 84.6525 55.7189 85.0861 55.7189 85.5196C55.8056 86.0399 55.372 86.3867 54.8518 86.3867Z" fill="black" stroke="black" stroke-width="0.25" stroke-miterlimit="10"/>
<path d="M54.5917 79.9702H44.0998C43.5795 79.9702 43.2327 79.5366 43.2327 79.1031C43.2327 78.5828 43.6662 78.236 44.0998 78.236H54.5917C55.112 78.236 55.4588 78.6695 55.4588 79.1031C55.4588 79.6233 55.0252 79.9702 54.5917 79.9702Z" fill="black" stroke="black" stroke-width="0.25" stroke-miterlimit="10"/>
<path d="M75.7491 82.3114C75.7491 82.8316 75.4023 83.2652 74.9687 83.2652L74.0149 83.3519L62.0489 84.3057L60.3147 84.4791L55.8058 84.8259H55.5457H55.0254H54.9387C54.6785 84.8259 54.4184 84.7392 54.245 84.5658C54.0716 84.3924 53.9849 84.219 53.9849 83.9588C53.9849 83.4386 54.3317 83.0917 54.852 83.005L55.7191 82.9183L74.0149 81.4443L74.882 81.3575C75.3156 81.4443 75.7491 81.8778 75.7491 82.3114Z" fill="black" stroke="black" stroke-width="0.25" stroke-miterlimit="10"/>
<path d="M44.7065 84.0455C44.7065 84.1322 44.7065 84.1322 44.7065 84.219C44.7065 84.3924 44.6198 84.4791 44.4464 84.6525C44.273 84.8259 44.0128 84.9126 43.7527 84.9126H43.666H43.059H42.7989L38.1166 84.5658L36.2956 84.3924L24.5031 83.4386L23.636 83.3519C23.1157 83.3519 22.7689 82.9183 22.8556 82.398C22.8556 81.8778 23.2891 81.5309 23.8094 81.6176L24.5031 81.7044L42.8856 83.1784L43.7527 83.2651C44.1863 83.2651 44.5331 83.612 44.6198 84.0455C44.7065 83.9588 44.7065 83.9588 44.7065 84.0455Z" fill="black" stroke="black" stroke-width="0.25" stroke-miterlimit="10"/>
<path d="M61.4417 90.1152C61.0082 90.1152 60.5746 89.7683 60.5746 89.2481L60.2278 83.5252C60.2278 83.005 60.5746 82.5714 61.0949 82.5714C61.6151 82.5714 62.0487 82.9183 62.0487 83.4385L62.3955 89.1614C62.3955 89.6816 62.0487 90.1152 61.4417 90.1152Z" fill="black" stroke="black" stroke-width="0.25" stroke-miterlimit="10"/>
<path d="M36.9895 90.1152C36.4693 90.1152 36.0357 89.6816 36.1224 89.1614L36.4693 83.4385C36.4693 82.9183 36.9028 82.5714 37.4231 82.5714C37.9433 82.5714 38.2902 83.005 38.2902 83.5252L37.9433 89.2481C37.8566 89.7683 37.4231 90.1152 36.9895 90.1152Z" fill="black" stroke="black" stroke-width="0.25" stroke-miterlimit="10"/>
<path d="M24.9369 37.1354L24.8502 48.2343V49.0147L24.5901 81.531V83.2652V87.3406V88.121C24.5901 88.6412 24.1565 88.9881 23.723 88.9881C23.6362 88.9881 23.6363 88.9881 23.5496 88.9881C23.5496 88.9881 23.4628 88.9881 23.3761 88.9881H23.2894C23.2894 88.9881 23.2027 88.9881 23.2027 88.9013L23.116 88.8146L23.0293 88.7279C22.9426 88.5545 22.8559 88.4678 22.8559 88.2944L23.0293 62.4548L23.116 49.0147L23.2027 37.2221C23.2027 36.7886 22.9426 28.9846 16.0925 27.4239C15.9191 27.3372 15.6589 27.3372 15.4855 27.3372C14.9652 27.2504 14.7051 26.8169 14.7918 26.2966C14.7918 26.2099 14.7918 26.1232 14.8785 26.0365C14.8785 25.9498 14.9652 25.8631 14.9652 25.8631C15.1386 25.603 15.4855 25.5162 15.8323 25.603C16.2659 25.6897 16.6994 25.7764 17.133 25.8631C20.2545 26.7302 22.5957 28.8112 23.8964 32.0195C24.4166 33.5803 24.8502 35.3145 24.9369 37.1354Z" fill="black" stroke="black" stroke-width="0.25" stroke-miterlimit="10"/>
<path d="M18.7803 85.4329C18.6936 85.4329 18.6936 85.4329 18.6069 85.4329L7.42125 83.6987C6.90099 83.612 6.64087 83.1784 6.64087 82.6581C6.72758 82.1379 7.16111 81.8777 7.68137 81.8777L18.867 83.6119C19.3872 83.6987 19.6474 84.1322 19.6474 84.6525C19.5607 85.086 19.2138 85.4329 18.7803 85.4329Z" fill="black" stroke="black" stroke-width="0.25" stroke-miterlimit="10"/>
<path d="M79.4772 85.4329C78.9569 85.4329 78.6101 84.9994 78.6101 84.5658C78.6101 84.1323 78.9569 83.7854 79.3905 83.6987L90.5761 81.9645C91.0964 81.8778 91.5299 82.2246 91.6166 82.7449C91.7033 83.2652 91.3565 83.6987 90.8362 83.7854L79.6506 85.5196C79.5639 85.4329 79.5639 85.4329 79.4772 85.4329Z" fill="black" stroke="black" stroke-width="0.25" stroke-miterlimit="10"/>
<path d="M75.8356 88.1209C75.8356 88.2944 75.8356 88.3811 75.7489 88.5545C75.7489 88.6412 75.7489 88.6412 75.6622 88.7279L75.5755 88.8146L75.4888 88.9013C75.4888 88.9013 75.4888 88.9013 75.4021 88.988C75.4021 88.988 75.4021 88.988 75.3154 88.988H75.2286H75.142C75.142 88.988 75.142 88.988 75.0552 88.988C63.6095 90.202 55.1986 90.5488 55.1119 90.5488C54.6784 90.5488 54.2448 90.202 54.2448 89.6817L54.0714 86.3L53.9847 84.5658L53.8113 79.9702L53.7245 78.236L51.21 24.4757C51.21 24.389 51.21 24.389 51.21 24.3023C51.2967 23.8687 51.6435 23.5219 52.0771 23.5219C52.3372 23.5219 52.684 23.5219 52.9442 23.5219C55.979 23.3485 58.4069 22.3947 60.0544 20.6605C62.6557 17.9724 62.7424 14.0705 62.7424 13.1167L60.5746 9.21473V9.12802C60.5746 9.12802 60.5746 9.12802 60.5746 9.04131C60.4012 8.69447 59.9677 8.0875 59.4474 8.0875H39.3307C38.8104 8.0875 38.3769 8.78118 38.2034 9.04131C38.2034 9.12802 38.1167 9.12802 38.1167 9.12802V9.21473L35.949 13.1167C35.949 13.9838 36.0357 17.8857 38.637 20.6605C40.2845 22.4814 42.7124 23.4352 45.8339 23.5219C46.0941 23.5219 46.3542 23.5219 46.6143 23.5219C47.1346 23.5219 47.4814 23.9554 47.4814 24.389V24.4757L44.9668 78.236L44.8801 79.9702L44.7067 83.8721V84.219V84.6525L44.62 86.3867L44.4466 89.7684C44.4466 90.2887 44.013 90.6355 43.4928 90.6355C43.4061 90.6355 34.9952 90.2887 23.5494 88.988H23.4627C23.4627 88.988 23.376 88.988 23.2893 88.988H23.2026C23.2026 88.988 23.1159 88.988 23.1159 88.9013L23.0292 88.8146L22.9425 88.7279C22.8557 88.5545 22.769 88.3811 22.8557 88.1209C22.9424 87.6874 23.376 87.3405 23.8096 87.3405C24.0697 87.3405 24.3298 87.4273 24.5899 87.4273C29.0989 87.8608 33.0008 88.2076 36.2091 88.4678C36.8161 88.4678 37.423 88.5545 37.9433 88.5545C40.111 88.7279 41.8453 88.8146 42.7124 88.8146L42.8858 85.5196V84.826L42.9725 83.0918L45.6605 25.3428C42.1054 25.1694 39.3307 24.0422 37.3363 21.8744C34.9952 19.4465 34.3882 16.2382 34.2148 14.4173C34.1281 13.5502 34.2148 12.9433 34.2148 12.8566C34.2148 12.6831 34.3015 12.5964 34.3015 12.5097L34.3882 12.3363L36.6426 8.43434C36.7294 8.26092 37.0762 7.65394 37.5965 7.13368C37.7699 6.96026 37.9433 6.78684 38.2034 6.70013C38.5503 6.52671 38.8971 6.44 39.3307 6.44H59.4474C59.881 6.44 60.2278 6.52671 60.5746 6.70013C60.8348 6.87355 61.0949 7.04697 61.2683 7.22039C61.7886 7.74065 62.0487 8.26092 62.1354 8.52105L64.3032 12.423L64.3899 12.5964C64.4766 12.6831 64.4766 12.8566 64.4766 12.9433C64.4766 13.03 64.4766 13.6369 64.3899 14.504C64.2165 16.325 63.6095 19.4465 61.2683 21.9611C59.274 24.1289 56.4993 25.2561 52.9442 25.4295L55.6322 83.1785L55.7189 84.9994V85.6931L55.8923 88.988C56.7594 88.988 58.4069 88.9013 60.4879 88.7279C61.0082 88.7279 61.6152 88.6412 62.3088 88.6412C65.5171 88.3811 69.5058 88.0342 74.1014 87.6007C74.3616 87.6007 74.6217 87.514 74.8818 87.514C75.4021 87.2538 75.8356 87.6007 75.8356 88.1209Z" fill="black" stroke="black" stroke-width="0.25" stroke-miterlimit="10"/>
<path d="M34.9951 13.897L34.128 14.4173L23.2026 20.4003C23.1159 20.4003 19.474 22.3079 16.9595 25.7763C16.6126 26.2966 16.2658 26.8169 16.0056 27.3371C15.3987 28.4643 15.0518 29.5916 14.8784 30.9789L8.46184 82.0512L8.37516 82.8316V83.7854L8.28844 89.595L16.0056 90.8956L17.8266 85.2595L18.0867 84.3924L18.1734 83.612L23.0292 48.9279L23.1159 48.4944C23.2026 47.9741 23.6361 47.714 24.1564 47.714C24.5032 47.8007 24.7634 47.9741 24.8501 48.321C24.8501 48.4944 24.9368 48.5811 24.8501 48.7545V49.1014L22.9424 62.368L19.8209 84.7392C19.8209 84.8259 19.8209 84.8259 19.8209 84.9126L17.393 92.283C17.3063 92.6298 16.9595 92.89 16.5259 92.89C16.4392 92.89 16.4392 92.89 16.3525 92.89L7.0745 91.3292C6.64095 91.2425 6.2941 90.8956 6.38081 90.4621L6.55424 82.9183V82.8316L13.1442 30.8922C13.3176 29.2447 13.8379 27.5972 14.705 26.1232C14.705 26.0365 14.7917 25.9498 14.7917 25.9498C15.5721 24.5624 16.6993 23.2617 18 22.0478C19.3006 20.8339 20.7747 19.7933 22.2488 19.0129L34.0413 12.5097C34.128 12.5097 34.1281 12.423 34.2148 12.423C34.6483 12.3363 35.0819 12.423 35.2553 12.8565C35.6021 13.1167 35.4287 13.6369 34.9951 13.897Z" fill="black" stroke="black" stroke-width="0.25" stroke-miterlimit="10"/>
<path d="M92.0503 90.4621C92.0503 90.8957 91.7902 91.3292 91.3566 91.3292L81.7318 92.89C81.7318 92.89 81.6451 92.89 81.5584 92.89C81.1249 92.89 80.778 92.6299 80.6913 92.1963L78.6103 84.6525V84.5658L75.402 62.6282L73.4077 48.4944C73.4077 48.4077 73.4077 48.4077 73.4077 48.321C73.4077 47.8874 73.7545 47.5406 74.188 47.4539C74.7083 47.3672 75.1418 47.714 75.2285 48.2343V48.321L80.2577 83.4386L80.3445 84.3057L80.6046 85.1728L82.2521 90.9824L90.3161 89.6817L90.056 83.6987L89.9693 82.7449L89.8826 81.9645L83.3793 30.979C83.2059 29.6783 82.859 28.4644 82.2521 27.3371C81.9919 26.7302 81.6451 26.2099 81.2983 25.7764C78.8704 22.308 75.1419 20.487 75.0551 20.4003L64.3898 14.4173L63.1758 13.7237C62.7423 13.4635 62.5689 12.9433 62.829 12.5097C63.0891 12.0762 63.6094 11.9027 64.0429 12.1629L64.2164 12.2496L75.8355 18.7528C77.3963 19.6199 78.8704 20.5738 80.0843 21.7877C81.385 23.0016 82.5122 24.3023 83.2926 25.6896C83.3793 25.7764 83.3793 25.8631 83.466 25.9498C84.3331 27.5106 84.8534 29.0713 85.0268 30.6321L91.5301 82.4848V82.5715L92.0503 90.4621Z" fill="black" stroke="black" stroke-width="0.25" stroke-miterlimit="10"/>
<path d="M46.5275 25.2561C46.4408 25.2561 46.4408 25.2561 46.354 25.2561C45.8338 25.1694 45.5737 24.6491 45.6604 24.2156C45.8338 23.4352 45.7471 22.4814 45.4002 21.5275C45.1401 20.8339 44.7066 20.1402 44.273 19.4465C44.0996 19.1864 43.9262 18.9262 43.7527 18.6661L37.5096 8.00077C37.2495 7.56722 37.3362 7.04696 37.7697 6.78683C38.2033 6.5267 38.7236 6.61341 38.9837 7.04696L39.0704 7.13367L45.3135 17.799C45.4869 18.0591 45.6604 18.3193 45.7471 18.5794C46.2673 19.3598 46.7009 20.1402 46.961 20.9206C47.3079 21.7877 47.6547 23.175 47.3079 24.6491C47.3079 24.996 46.961 25.2561 46.5275 25.2561Z" fill="black" stroke="black" stroke-width="0.25" stroke-miterlimit="10"/>
<path d="M52.0769 25.2561C51.6434 25.2561 51.2965 24.9959 51.2098 24.5624C50.863 23.0883 51.2098 21.7877 51.5567 20.8339C51.9035 19.9667 52.3371 19.1864 52.7706 18.4927C52.944 18.2325 53.1174 17.9724 53.2042 17.7123L59.4473 7.04694C59.6207 6.61339 60.2277 6.43997 60.6612 6.61339C61.0948 6.78681 61.2682 7.39378 61.0948 7.82733C61.0948 7.82733 61.0948 7.91404 61.0081 7.91404L54.7649 18.5794C54.5915 18.8395 54.4181 19.0996 54.2447 19.3598C53.8111 19.9668 53.4643 20.6604 53.1174 21.4408C52.7706 22.3946 52.6839 23.3484 52.8573 24.1288C52.944 24.6491 52.6839 25.0826 52.1636 25.1694C52.2504 25.2561 52.1636 25.2561 52.0769 25.2561Z" fill="black" stroke="black" stroke-width="0.25" stroke-miterlimit="10"/>
<path d="M56.6725 14.4173H41.9318C41.4115 14.4173 41.0647 13.9838 41.0647 13.5502C41.0647 13.0299 41.4982 12.6831 41.9318 12.6831H56.6725C57.1928 12.6831 57.5396 13.1167 57.5396 13.5502C57.5396 14.0705 57.1928 14.4173 56.6725 14.4173Z" fill="black" stroke="black" stroke-width="0.25" stroke-miterlimit="10"/>
<path d="M75.7491 82.3114C75.7491 82.8316 75.4023 83.2652 74.9687 83.2652L74.0149 83.3519L62.0489 84.3057L60.3147 84.4791L55.8058 84.8259H55.5457H55.0254H54.9387C54.6785 84.8259 54.4184 84.7392 54.245 84.5658C54.0716 84.3924 53.9849 84.219 53.9849 83.9588C53.9849 83.4386 54.3317 83.0917 54.852 83.005L55.7191 82.9183L74.0149 81.4443L74.882 81.3575C75.3156 81.4443 75.7491 81.8778 75.7491 82.3114Z" fill="black" stroke="black" stroke-width="0.25" stroke-miterlimit="10"/>
<path d="M44.7065 84.0455C44.7065 84.1322 44.7065 84.1322 44.7065 84.219C44.7065 84.3924 44.6198 84.4791 44.4464 84.6525C44.273 84.8259 44.0128 84.9126 43.7527 84.9126H43.666H43.059H42.7989L38.1166 84.5658L36.2956 84.3924L24.5031 83.4386L23.636 83.3519C23.1157 83.3519 22.7689 82.9183 22.8556 82.398C22.8556 81.8778 23.2891 81.5309 23.8094 81.6176L24.5031 81.7044L42.8856 83.1784L43.7527 83.2651C44.1863 83.2651 44.5331 83.612 44.6198 84.0455C44.7065 83.9588 44.7065 83.9588 44.7065 84.0455Z" fill="black" stroke="black" stroke-width="0.25" stroke-miterlimit="10"/>
<path d="M61.4417 90.1152C61.0082 90.1152 60.5746 89.7683 60.5746 89.2481L60.2278 83.5252C60.2278 83.005 60.5746 82.5714 61.0949 82.5714C61.6151 82.5714 62.0487 82.9183 62.0487 83.4385L62.3955 89.1614C62.3955 89.6816 62.0487 90.1152 61.4417 90.1152Z" fill="black" stroke="black" stroke-width="0.25" stroke-miterlimit="10"/>
<path d="M36.9895 90.1152C36.4693 90.1152 36.0357 89.6816 36.1224 89.1614L36.4693 83.4385C36.4693 82.9183 36.9028 82.5714 37.4231 82.5714C37.9433 82.5714 38.2902 83.005 38.2902 83.5252L37.9433 89.2481C37.8566 89.7683 37.4231 90.1152 36.9895 90.1152Z" fill="black" stroke="black" stroke-width="0.25" stroke-miterlimit="10"/>
<path d="M37.2494 21.7876C34.9082 19.3598 34.3012 16.1515 34.1278 14.3306L23.2023 20.3136C23.1156 20.3136 19.4738 22.2212 16.9592 25.6896C20.0808 26.5567 22.422 28.6377 23.7226 31.846C24.4163 33.4935 24.8498 35.3144 24.9365 37.0486L24.8499 48.1475C24.8499 48.3209 24.9366 48.4076 24.8499 48.5811V48.9279L24.5897 81.4442L42.9723 82.9183L45.6603 25.1693C42.1052 25.0826 39.2437 23.9554 37.2494 21.7876ZM32.7405 65.2294C32.7405 65.2294 32.7405 65.3161 32.7405 65.2294C32.6537 65.3161 30.3993 69.6516 28.8385 78.496C28.7518 78.9296 28.4049 79.1897 27.9714 79.1897C27.8847 79.1897 27.8847 79.1897 27.798 79.1897C27.2777 79.103 27.0176 78.6695 27.1043 78.1492C27.8847 73.5536 28.9252 70.1719 29.7056 67.9174C30.486 65.663 31.093 64.5357 31.1797 64.449C31.4398 64.0155 31.9601 63.842 32.3936 64.0155C32.7405 64.2756 32.9139 64.7959 32.7405 65.2294Z" fill="#F1BB2F"/>
<path d="M32.7407 65.2294C32.7407 65.2294 32.7407 65.3161 32.7407 65.2294C32.654 65.3161 30.3996 69.6517 28.8388 78.4961C28.7521 78.9296 28.4052 79.1898 27.9717 79.1898C27.885 79.1898 27.885 79.1898 27.7983 79.1898C27.278 79.1031 27.0179 78.6695 27.1046 78.1492C27.885 73.5536 28.9255 70.1719 29.7059 67.9174C30.4863 65.663 31.0932 64.5358 31.18 64.449C31.4401 64.0155 31.9603 63.8421 32.3939 64.0155C32.7407 64.2756 32.9141 64.7959 32.7407 65.2294Z" fill="black" stroke="black" stroke-width="0.25" stroke-miterlimit="10"/>
<path d="M71.5 78.236C71.5867 78.7562 71.2399 79.1898 70.8064 79.2765C70.7197 79.2765 70.7196 79.2765 70.6329 79.2765C70.1994 79.2765 69.8525 79.0164 69.7658 78.5828C68.205 69.6517 65.9506 65.4029 65.9506 65.4029C65.6905 64.9693 65.8639 64.4491 66.2974 64.1889C66.731 63.9288 67.2512 64.1022 67.5114 64.5358C67.5114 64.5358 67.5114 64.5358 67.5114 64.6225C67.5981 64.6225 69.9393 69.0447 71.5 78.236Z" fill="black" stroke="black" stroke-width="0.25" stroke-miterlimit="10"/>
<path d="M57.6265 29.1581V29.3315C57.6265 29.8517 57.2797 30.1986 56.7594 30.2853C56.2392 30.2853 55.8923 29.9384 55.8923 29.4182V29.2448C55.8923 28.7245 56.2392 28.3777 56.7594 28.291C57.193 28.291 57.5398 28.6378 57.6265 29.1581Z" fill="black" stroke="black" stroke-width="0.25" stroke-miterlimit="10"/>
<path d="M58.0601 41.3841V41.5576C58.0601 42.0778 57.7133 42.4247 57.193 42.5114C56.7595 42.5114 56.3259 42.1645 56.3259 41.6443V41.4708C56.3259 40.9506 56.6728 40.6037 57.193 40.517C57.6266 40.517 58.0601 40.9506 58.0601 41.3841Z" fill="black" stroke="black" stroke-width="0.25" stroke-miterlimit="10"/>
<path d="M58.5801 53.697V53.8704C58.5801 54.3907 58.2333 54.7375 57.713 54.8242C57.1928 54.8242 56.8459 54.4774 56.8459 53.9571V53.7837C56.8459 53.2634 57.1928 52.9166 57.713 52.8299C58.1466 52.8299 58.5801 53.1767 58.5801 53.697Z" fill="black" stroke="black" stroke-width="0.25" stroke-miterlimit="10"/>
<path d="M59.1007 65.9231V66.0965C59.1007 66.6168 58.7538 66.9636 58.2336 67.0504C57.8 67.0504 57.3665 66.7035 57.3665 66.1833V66.0098C57.3665 65.4896 57.7133 65.1427 58.2336 65.056C58.6671 65.056 59.1007 65.4029 59.1007 65.9231Z" fill="black" stroke="black" stroke-width="0.25" stroke-miterlimit="10"/>
<path d="M75.1421 20.4004C75.1421 20.4004 75.0554 20.4004 75.1421 20.4004L64.4767 14.4174C64.3033 16.2383 63.6963 19.3598 61.3552 21.8744C59.3608 24.0422 56.5861 25.1694 53.031 25.3428L55.719 83.0918L74.0148 81.6177L73.4079 48.5811C73.4079 48.4944 73.4079 48.4944 73.4079 48.4077L73.2345 37.1354C73.2345 31.6727 75.8358 28.8112 78.0035 27.3372C79.044 26.6435 80.1713 26.1232 81.3852 25.7764C78.8706 22.308 75.1421 20.4004 75.1421 20.4004ZM55.8057 29.4182V29.2448C55.8057 28.7245 56.1526 28.3777 56.6728 28.291C57.1931 28.291 57.5399 28.6378 57.6266 29.1581V29.3315C57.6266 29.8518 57.2798 30.1986 56.7595 30.2853C56.2393 30.2853 55.8057 29.8518 55.8057 29.4182ZM56.326 41.6443V41.4709C56.326 40.9507 56.6728 40.6038 57.1931 40.5171C57.7133 40.5171 58.0602 40.8639 58.1469 41.3842V41.5576C58.1469 42.0779 57.8001 42.4247 57.2798 42.5114C56.7595 42.5114 56.326 42.1646 56.326 41.6443ZM56.8462 53.9572V53.7838C56.8462 53.2635 57.1931 52.9167 57.7133 52.8299C58.2336 52.8299 58.5805 53.1768 58.6672 53.697V53.8705C58.6672 54.3907 58.3203 54.7376 57.8001 54.8243C57.2798 54.7376 56.8462 54.3907 56.8462 53.9572ZM57.3665 66.1833V66.0099C57.3665 65.4896 57.7134 65.1428 58.2336 65.0561C58.7539 65.0561 59.1007 65.4029 59.1874 65.9232V66.0966C59.1874 66.6168 58.8406 66.9637 58.3203 67.0504C57.7133 67.0504 57.3665 66.7036 57.3665 66.1833ZM59.621 78.4094C59.621 78.9297 59.2741 79.2765 58.7539 79.3632C58.3203 79.3632 57.8868 79.0164 57.8868 78.4961V78.3227C57.8868 77.8024 58.2336 77.4556 58.7539 77.3689C59.2741 77.3689 59.621 77.7157 59.7077 78.236V78.4094H59.621ZM70.8066 79.1898C70.7199 79.1898 70.7199 79.1898 70.6332 79.1898C70.1996 79.1898 69.8528 78.9297 69.7661 78.4961C68.2053 69.565 65.9508 65.3162 65.9508 65.3162C65.6907 64.8826 65.8641 64.3624 66.2976 64.1022C66.7312 63.8421 67.2515 64.0155 67.5116 64.4491C67.5116 64.4491 67.5116 64.4491 67.5116 64.5358C67.5983 64.7092 69.9395 69.1314 71.5003 78.3227C71.587 78.6695 71.2401 79.1031 70.8066 79.1898Z" fill="#F1BB2F"/>
<path d="M59.6209 78.1493V78.3227C59.6209 78.8429 59.2741 79.1898 58.7538 79.2765C58.3203 79.2765 57.8867 78.9297 57.8867 78.4094V78.236C57.8867 77.7157 58.2336 77.3689 58.7538 77.2822C59.1874 77.2822 59.6209 77.7157 59.6209 78.1493Z" fill="black" stroke="black" stroke-width="0.25" stroke-miterlimit="10"/>
</svg>
