<svg width="99" height="99" viewBox="0 0 99 99" fill="none" xmlns="http://www.w3.org/2000/svg">
<path d="M93.42 69.3914L92.2928 69.0446C92.2061 67.3104 91.8593 65.4895 91.1656 63.842C89.6048 59.3331 84.8357 59.0729 78.2458 58.7261C77.0318 58.6394 75.7312 58.6394 74.3438 58.466C67.6671 58.0324 62.5512 53.7836 61.1639 52.483C61.1639 52.2228 61.0772 52.0494 60.9037 51.7893C60.2968 50.662 58.5626 48.9278 53.0998 45.9797C45.2959 41.8176 43.0415 30.8921 42.3478 24.8224C42.0009 21.961 41.1338 20.2268 39.5731 19.5331C39.1395 19.3597 38.6192 19.1863 38.099 19.273L38.0123 18.059C38.0123 17.9723 38.0123 17.8856 38.0123 17.7989C37.8388 16.8451 37.2319 16.0647 36.3648 15.7179C34.804 15.1976 33.3299 16.3248 30.8153 18.2325C30.0349 18.8394 29.1678 19.4464 28.1273 20.2268C24.4855 22.7414 12.3461 22.3078 8.01056 21.8743C7.23016 21.7876 6.53649 22.3945 6.44978 23.1749V23.3484L7.05676 37.3087C7.14348 42.0777 6.62319 46.7601 5.40925 51.3557C3.41492 58.6394 5.14914 66.7901 5.23585 67.137C5.23585 67.137 5.23585 67.137 5.23585 67.2237L4.1086 68.3509C3.84847 68.611 3.67505 68.9579 3.67505 69.3914V80.8372C3.67505 81.6176 4.28203 82.2245 5.06242 82.2245H30.3818C31.1622 82.2245 31.7691 81.6176 31.7691 80.8372V76.0681C35.2376 77.1086 42.5212 79.2764 46.4231 79.5365V81.2707C46.4231 81.9644 46.9434 82.5714 47.7238 82.6581C48.4175 82.7448 56.1347 83.5252 65.326 83.5252C75.5578 83.5252 87.5238 82.5714 93.5068 78.4093C93.9403 78.1492 94.1137 77.7156 94.1137 77.2821V70.6921C94.4605 70.0851 94.027 69.5649 93.42 69.3914ZM32.3761 20.8338C32.4628 20.7471 32.5495 20.6603 32.6363 20.5736C33.5034 19.88 34.3704 19.273 35.3242 18.666L35.4977 20.4869L32.3761 22.568V20.8338ZM29.5147 22.8281V33.7536C29.5147 34.534 28.9077 35.1409 28.1273 35.1409H10.0049L9.48464 24.9091C13.8201 25.1693 24.919 25.6028 29.5147 22.8281ZM10.0916 38.0024H28.1273C30.4685 38.0024 32.3761 36.0947 32.3761 33.7536V26.0364L37.7521 22.4813C37.8389 22.3945 38.2724 22.2211 38.5325 22.3078C38.6192 22.3078 39.3129 22.7414 39.6598 25.3427C40.4401 32.0194 42.9548 43.8987 51.8859 48.6677C56.7417 51.269 58.0423 52.6564 58.3892 53.0899C58.5626 55.2577 58.129 57.7723 57.3486 58.2058C54.3138 58.466 26.74 52.3963 9.22452 48.3209C9.83149 44.8525 10.0916 41.3841 10.0916 38.0024ZM8.35742 52.2228C8.44413 51.876 8.61754 51.4424 8.70425 51.0089C25.4393 54.9108 51.9726 60.8938 57.4353 60.8938C57.6955 60.8938 58.0423 60.8938 58.3024 60.8071C60.1233 60.1135 60.9037 58.0324 61.1639 56.1248C63.7652 58.1191 68.4475 60.9806 74.3438 61.4141C75.7312 61.5008 77.0318 61.5875 78.2458 61.6742C84.5756 62.0211 87.6972 62.2812 88.651 64.8825C89.1712 66.1832 89.4314 67.5705 89.6048 68.9579C82.668 70.8655 75.5578 71.9927 68.4475 72.2529C56.048 72.8598 42.1744 69.7383 41.2206 69.4781C34.4572 67.4838 27.4336 66.4433 20.4101 66.4433C12.953 66.53 9.57135 66.0964 8.2707 65.8363C7.66373 63.5819 6.88334 57.5121 8.35742 52.2228ZM91.5991 76.5017C81.7142 82.3979 55.6144 80.4903 49.5447 79.9701V78.1492C49.5447 77.3688 48.9377 76.7618 48.1573 76.7618C48.0706 76.7618 48.0707 76.7618 47.984 76.7618C45.5561 77.0219 36.3648 74.5073 31.0755 72.7731C30.3818 72.513 29.5147 72.9465 29.3413 73.7269C29.2545 73.9004 29.2545 73.9871 29.2545 74.1605V79.3631H6.79662V69.9984L8.09727 68.6978C10.0049 68.9579 13.56 69.3047 20.2367 69.3047C27.0001 69.3047 33.7635 70.3452 40.2667 72.2529H40.3534C48.4175 74.0738 56.7416 75.0276 65.0658 75.201C66.193 75.201 67.3203 75.201 68.4475 75.1143C75.9046 74.8542 83.3617 73.6402 90.5586 71.5592L91.5991 71.906V76.5017Z" fill="black"/>
<path d="M58.3893 53.0033C58.0424 52.5697 56.7418 51.1824 51.886 48.5811C42.9549 43.812 40.3535 31.846 39.6598 25.2561C39.3997 22.6548 38.6193 22.2212 38.5326 22.2212C38.2725 22.1345 37.8389 22.3079 37.7522 22.3946L32.3762 25.9497V33.6669C32.3762 36.0081 30.4686 37.9157 28.1274 37.9157H10.0917C10.0917 41.3841 9.83158 44.7658 9.22461 48.2342C26.7401 52.3096 54.3139 58.3793 57.3487 58.1192C58.1291 57.6856 58.476 55.1711 58.3893 53.0033ZM35.7579 28.3776C35.7579 27.5972 36.3649 26.9903 37.1453 26.9903C37.9256 26.9903 38.5326 27.5972 38.5326 28.3776C38.5326 29.158 37.9256 29.765 37.1453 29.765C36.3649 29.8517 35.7579 29.158 35.7579 28.3776ZM38.6193 36.8752C37.8389 36.8752 37.232 36.2682 37.232 35.4879C37.232 34.7075 37.8389 34.1005 38.6193 34.1005C39.3997 34.1005 40.0067 34.7075 40.0067 35.4879C40.0067 36.2682 39.3997 36.8752 38.6193 36.8752ZM41.394 43.9854C40.6137 43.9854 40.0067 43.3785 40.0067 42.5981C40.0067 41.8177 40.6137 41.2107 41.394 41.2107C42.1744 41.2107 42.7814 41.8177 42.7814 42.5981C42.8681 43.2918 42.1744 43.9854 41.394 43.9854ZM46.3365 49.6216C45.5561 49.6216 44.9492 49.0146 44.9492 48.2342C44.9492 47.4538 45.5561 46.8469 46.3365 46.8469C47.1169 46.8469 47.7239 47.4538 47.7239 48.2342C47.7239 49.0146 47.1169 49.6216 46.3365 49.6216ZM52.0594 53.1767C51.279 53.1767 50.672 52.5697 50.672 51.7894C50.672 51.009 51.279 50.402 52.0594 50.402C52.8398 50.402 53.4468 51.009 53.4468 51.7894C53.4468 52.483 52.8398 53.1767 52.0594 53.1767Z" fill="#F1BB2F"/>
<path d="M52.0592 53.09C52.8254 53.09 53.4466 52.4688 53.4466 51.7026C53.4466 50.9364 52.8254 50.3152 52.0592 50.3152C51.293 50.3152 50.6719 50.9364 50.6719 51.7026C50.6719 52.4688 51.293 53.09 52.0592 53.09Z" fill="black"/>
<path d="M46.3366 49.6216C47.1028 49.6216 47.7239 49.0004 47.7239 48.2342C47.7239 47.468 47.1028 46.8469 46.3366 46.8469C45.5704 46.8469 44.9492 47.468 44.9492 48.2342C44.9492 49.0004 45.5704 49.6216 46.3366 49.6216Z" fill="black"/>
<path d="M42.868 42.5113C42.868 43.2917 42.261 43.8987 41.4806 43.8987C40.7002 43.8987 40.0933 43.2917 40.0933 42.5113C40.0933 41.7309 40.7002 41.124 41.4806 41.124C42.1743 41.124 42.868 41.7309 42.868 42.5113Z" fill="black"/>
<path d="M38.6193 36.8751C39.3855 36.8751 40.0067 36.254 40.0067 35.4878C40.0067 34.7215 39.3855 34.1004 38.6193 34.1004C37.8531 34.1004 37.2319 34.7215 37.2319 35.4878C37.2319 36.254 37.8531 36.8751 38.6193 36.8751Z" fill="black"/>
<path d="M37.1452 29.765C37.9114 29.765 38.5325 29.1438 38.5325 28.3776C38.5325 27.6114 37.9114 26.9902 37.1452 26.9902C36.379 26.9902 35.7578 27.6114 35.7578 28.3776C35.7578 29.1438 36.379 29.765 37.1452 29.765Z" fill="black"/>
<path d="M13.9068 64.4489C16.6815 64.4489 18.8493 62.1945 18.8493 59.5064C18.8493 56.7317 16.5948 54.564 13.9068 54.564C11.2188 54.564 8.96433 56.8184 8.96433 59.5064C8.87762 62.2812 11.1321 64.4489 13.9068 64.4489ZM13.9068 57.4254C15.1208 57.4254 15.9879 58.3792 15.9879 59.5064C15.9879 60.7204 15.0341 61.5875 13.9068 61.5875C12.7796 61.5875 11.8258 60.6337 11.8258 59.5064C11.7391 58.3792 12.6929 57.4254 13.9068 57.4254Z" fill="black"/>
</svg>
