<svg width="113" height="99" viewBox="0 0 113 99" fill="none" xmlns="http://www.w3.org/2000/svg">
<path d="M108.403 61.0326C107.189 59.3851 105.455 57.8243 103.287 56.437C99.0385 53.6623 93.1422 51.4078 85.7718 49.6736L81.0027 22.0131C80.5692 19.6719 79.6154 17.5042 78.1413 15.8567C76.6673 14.2092 74.4995 13.1686 72.0716 13.1686C71.9849 13.1686 71.9849 13.1686 71.8982 13.1686C71.8982 13.1686 61.2329 15.163 56.2037 15.163C51.0878 15.163 40.5091 13.1686 40.5091 13.1686C40.4224 13.1686 40.4224 13.1686 40.3357 13.1686C37.8211 13.1686 35.74 14.2092 34.266 15.8567C32.7052 17.5042 31.7514 19.6719 31.4045 22.0131L26.6355 49.6736C19.2651 51.4078 13.3688 53.749 9.12004 56.437C4.78453 59.2984 2.18323 62.5934 2.18323 66.3219C2.18323 69.2701 3.91747 72.0448 6.77891 74.386C9.64034 76.7272 13.629 78.8082 18.4848 80.5424C28.283 84.0108 41.6363 86.0919 56.3771 86.0919C71.1178 86.0919 84.4711 84.0108 94.2694 80.5424C99.1252 78.8082 103.114 76.7272 105.975 74.386C108.837 72.0448 110.571 69.2701 110.571 66.3219C110.224 64.4143 109.617 62.6801 108.403 61.0326ZM27.3292 57.3908L28.1096 52.8819C29.6704 54.2692 31.578 55.223 33.2255 55.9167C35.5667 56.7838 37.561 57.2174 37.561 57.2174C38.168 57.3041 38.6882 56.9572 38.7749 56.437C38.8616 55.83 38.5148 55.3098 37.9945 55.223C37.9945 55.223 37.9945 55.223 37.9078 55.223C37.9078 55.223 36.0869 54.8762 33.9192 54.0958C31.9248 53.3154 29.6704 52.1015 28.4564 50.454L33.2255 22.5333C33.5723 20.539 34.3527 18.7181 35.5666 17.5041C36.6939 16.2902 38.2547 15.5098 40.1623 15.5098C40.4224 15.5965 50.5675 17.5041 56.1169 17.5041C61.6664 17.5041 71.8115 15.5965 72.0716 15.5098C73.9792 15.5098 75.4533 16.2902 76.5806 17.5041C77.7945 18.8048 78.5748 20.539 78.9217 22.5333L84.9047 57.5642C84.9047 57.6509 84.9047 57.7376 84.9047 57.8244C84.9047 58.4313 84.7313 58.9516 84.211 59.5586C84.1243 59.6453 83.9509 59.8187 83.8642 59.9054C83.7775 59.9921 83.6908 60.0788 83.604 60.1655C83.5173 60.2522 83.4306 60.3389 83.2572 60.4257C83.1705 60.5124 83.0838 60.5991 82.9971 60.5991C82.9104 60.6858 82.7369 60.7725 82.5635 60.8592C82.4768 60.9459 82.3034 61.0326 82.2167 61.0326C82.0433 61.1193 81.9566 61.206 81.7832 61.2928C81.6097 61.3795 81.4363 61.4662 81.2629 61.5529C81.1762 61.6396 81.0028 61.6396 80.9161 61.7263C80.7426 61.813 80.4825 61.8997 80.3091 61.9864C80.1357 62.0731 80.0489 62.0731 79.8755 62.1599C79.7021 62.2466 79.442 62.3333 79.2685 62.42C79.0951 62.5067 79.0084 62.5067 78.835 62.5934C78.5749 62.6801 78.4015 62.7668 78.1413 62.8535C77.9679 62.8535 77.8812 62.9403 77.7078 63.027C77.4476 63.1137 77.1875 63.2004 76.9274 63.2871C76.8407 63.2871 76.6673 63.3738 76.5806 63.3738C76.3204 63.4605 75.9736 63.5472 75.7134 63.6339C75.6267 63.6339 75.4533 63.7206 75.3666 63.7206C75.1065 63.8073 74.7596 63.8941 74.4995 63.9808C74.4128 63.9808 74.2393 64.0675 74.1526 64.0675C73.8058 64.1542 73.5457 64.2409 73.1988 64.3276C73.1121 64.3276 72.9387 64.4143 72.852 64.4143C72.4184 64.501 72.0716 64.5877 71.6381 64.6744C71.2045 64.7612 70.771 64.8479 70.3374 64.9346C69.6437 65.108 68.95 65.1947 68.2563 65.2814C68.0829 65.2814 67.8228 65.3681 67.6494 65.3681C67.0424 65.4549 66.3488 65.5416 65.7418 65.6283C65.4817 65.6283 65.3082 65.715 65.0481 65.715C64.3544 65.8017 63.7475 65.8884 63.1405 65.9751C62.9671 65.9751 62.8804 65.9751 62.7069 66.0618C59.6721 66.4087 57.0708 66.4954 55.7701 66.4954C55.51 66.4954 55.0764 66.4954 54.6428 66.4954C54.2093 66.4954 53.689 66.4086 53.0821 66.4086C52.9954 66.4086 52.822 66.4086 52.7353 66.4086C52.215 66.4086 51.608 66.322 50.9143 66.2352C50.7409 66.2352 50.5675 66.2352 50.3073 66.1485C49.7004 66.0618 49.0934 65.9751 48.3998 65.9751C45.5383 65.6283 42.2433 65.108 39.035 64.4143C35.5666 63.6339 32.2717 62.6801 30.0172 61.4662C28.89 60.8592 28.0229 60.2522 27.5893 59.6453C27.5026 59.5586 27.5026 59.4718 27.4159 59.4718V59.3851C27.3292 59.2984 27.3292 59.2117 27.2425 59.125C27.2425 58.1712 27.2425 57.8244 27.3292 57.3908ZM26.6355 61.2928C26.8956 61.5529 27.1558 61.813 27.4159 62.0731C28.8033 63.2004 30.7109 64.0675 32.9653 64.7612C36.6071 65.9751 41.0294 66.7555 45.1915 67.189C49.0067 67.7093 52.3884 67.9694 54.5562 68.0561H54.6428H54.7296C55.2499 68.0561 55.6834 68.0561 56.0302 68.0561C56.2904 68.0561 56.7239 68.0561 57.1575 68.0561C57.4176 68.0561 57.6777 68.0562 57.9379 67.9694C58.198 67.9694 58.4581 67.9694 58.7182 67.9694C58.9784 67.9694 59.3252 67.8827 59.6721 67.8827C60.0189 67.8827 60.279 67.796 60.6259 67.796C60.9727 67.796 61.4062 67.7093 61.7531 67.7093C62.0999 67.7093 62.4468 67.6226 62.7936 67.6226C62.8803 67.6226 62.8803 67.6226 62.9671 67.6226C66.262 67.2757 69.9906 66.7555 73.6324 65.9751C77.1875 65.1947 80.5692 64.1542 82.9971 62.8535C83.9509 62.3333 84.818 61.7263 85.4249 61.1193L86.2054 65.8884C86.2921 66.5821 86.2054 67.1023 85.6851 67.7093C85.1649 68.3163 84.2978 69.01 83.0838 69.7036C80.7426 70.9176 77.2742 72.0448 73.6324 72.8252C66.3487 74.386 58.1113 75.0797 55.9435 75.0797C53.7757 75.0797 45.625 74.386 38.2547 72.8252C34.6128 72.0448 31.1444 71.0043 28.8032 69.7036C27.676 69.0967 26.7222 68.403 26.2019 67.7093C25.6817 67.1023 25.5083 66.4954 25.6817 65.8884L26.6355 61.2928ZM104.414 72.7385C101.9 74.9063 98.0846 76.8139 93.3156 78.5481C83.8642 81.9298 70.6842 84.0108 56.1169 84.0108C41.5496 84.0108 28.3697 81.9298 18.9183 78.5481C14.1493 76.9006 10.4207 74.9063 7.81939 72.7385C5.30479 70.6575 4.00417 68.403 4.00417 66.2352C4.00417 63.5472 5.99847 60.7725 9.98714 58.1712C13.7157 55.7433 19.2651 53.6623 26.0285 52.0148L25.1614 57.044C25.1614 57.2174 25.1614 57.3041 25.0747 57.4775L23.6874 65.4548C23.4272 66.7555 23.8608 67.9694 24.6412 68.9232C25.4216 69.877 26.5488 70.7442 27.8495 71.4379C30.5375 72.8252 34.0926 73.9524 37.8211 74.7328C45.2782 76.3803 53.4289 77.074 55.9435 77.074C58.4581 77.074 66.6089 76.3803 74.0659 74.7328C77.7945 73.9524 81.4363 72.8252 84.0376 71.4379C85.3383 70.7442 86.4655 69.9638 87.2459 68.9232C88.0263 67.9694 88.4598 66.6688 88.1997 65.4548L86.8123 57.4775C86.8123 57.3041 86.8123 57.1307 86.7256 57.044L85.8585 52.0148C92.5352 53.6623 98.1713 55.7433 101.9 58.1712C105.975 60.7725 107.883 63.5472 107.97 66.2352C108.143 68.4897 106.929 70.6575 104.414 72.7385Z" fill="black" stroke="black" stroke-width="0.7216" stroke-miterlimit="10"/>
<path d="M85.8583 67.6225C85.3381 68.2295 84.471 68.9232 83.257 69.6169C80.9158 70.8308 77.4475 71.958 73.8056 72.7384C66.522 74.2992 58.2845 74.9929 56.1168 74.9929C53.949 74.9929 45.7983 74.2992 38.4279 72.7384C34.7861 71.958 31.3177 70.9175 28.9765 69.6169C27.8493 69.0099 26.8955 68.3162 26.3752 67.6225C25.8549 67.0156 25.6815 66.4086 25.855 65.8016L26.6353 61.2927C26.8954 61.5528 27.1556 61.8129 27.4157 62.0731C28.8031 63.2003 30.7107 64.0674 32.9651 64.7611C36.607 65.975 41.0292 66.7554 45.1913 67.189C49.0065 67.7092 52.3882 67.9694 54.556 68.0561H54.6427H54.7294C55.2497 68.0561 55.6832 68.0561 56.0301 68.0561C56.2902 68.0561 56.7237 68.0561 57.1573 68.0561C57.4174 68.0561 57.6776 68.0561 57.9377 67.9694C58.1978 67.9694 58.4579 67.9694 58.7181 67.9694C58.9782 67.9694 59.3251 67.8827 59.6719 67.8827C60.0187 67.8827 60.2789 67.796 60.6257 67.796C60.9725 67.796 61.4061 67.7092 61.7529 67.7092C62.0998 67.7092 62.4466 67.6225 62.7934 67.6225C62.8802 67.6225 62.8802 67.6225 62.9669 67.6225C66.2619 67.2757 69.9904 66.7554 73.6322 65.975C77.1873 65.1946 80.569 64.1541 82.9969 62.8535C83.9507 62.3332 84.8178 61.7262 85.4248 61.1193L86.2052 65.8883C86.4653 66.4953 86.2919 67.0156 85.8583 67.6225Z" fill="#F1BB2F"/>
</svg>
