<svg width="99" height="99" viewBox="0 0 99 99" fill="none" xmlns="http://www.w3.org/2000/svg">
<path d="M89.3872 46.3603C87.464 44.6043 85.0389 43.6009 82.4467 43.35V26.7931C82.4467 15.6715 73.4157 6.6405 62.2941 6.6405H36.2045C25.0829 6.6405 16.0519 15.6715 16.0519 26.7931V43.35H15.9682C10.5329 44.019 5.93375 48.3672 5.09754 53.8026C4.34496 58.7362 6.5191 63.419 10.6165 66.0948V81.7319C10.6165 83.9897 12.4562 85.7457 14.6303 85.7457H18.7277V89.5086C18.7277 91.1811 20.1493 92.6026 21.8217 92.6026H26.5881C28.2605 92.6026 29.682 91.1811 29.682 89.5086V85.7457H68.7329V89.5086C68.7329 91.1811 70.1545 92.6026 71.8269 92.6026H76.5933C78.3493 92.6026 79.6872 91.1811 79.6872 89.5086V85.7457H83.7846C86.0424 85.7457 87.7984 83.9061 87.7984 81.7319V66.0948C91.3105 63.8371 93.4846 59.9069 93.4846 55.6422C93.5683 52.1302 92.0631 48.7017 89.3872 46.3603ZM18.7277 26.7931C18.7277 17.1767 26.5881 9.31637 36.2045 9.31637H62.3777C71.9941 9.31637 79.7709 17.1767 79.7709 26.7931V43.35C79.6872 43.35 79.6036 43.35 79.6036 43.35C74.001 44.019 69.4019 48.6181 68.8165 54.2207C68.6493 55.8095 68.8165 57.4819 69.2346 58.9871H29.3476C29.5984 57.9 29.7657 56.8129 29.7657 55.6422C29.7657 52.1302 28.2605 48.7017 25.5846 46.3603C23.6613 44.6043 21.2363 43.6009 18.7277 43.35V26.7931ZM70.2381 61.6629C71.8269 64.8405 72.7467 67.9345 72.914 70.8612H25.5846C25.7519 67.6 26.6717 64.506 28.1769 61.7466C28.1769 61.7466 28.1769 61.7466 28.1769 61.6629H70.2381ZM27.0062 89.5086C27.0062 89.7595 26.8389 89.9267 26.5881 89.9267H21.8217C21.5708 89.9267 21.4036 89.7595 21.4036 89.5086V85.7457H27.0062V89.5086ZM77.095 89.5086C77.095 89.7595 76.9277 89.9267 76.6769 89.9267H71.9105C71.6596 89.9267 71.4924 89.7595 71.4924 89.5086V85.7457H77.095V89.5086ZM85.8752 64.1716C85.4571 64.4224 85.2062 64.8405 85.2062 65.3423V81.7319C85.2062 82.4845 84.6208 83.0698 83.8683 83.0698H14.6303C13.8777 83.0698 13.2924 82.4845 13.2924 81.7319V65.3423C13.2924 64.8405 13.0415 64.4224 12.6234 64.1716C9.02772 62.1647 7.10444 58.2345 7.68979 54.1371C8.35875 49.8724 11.8708 46.444 16.1355 45.9422C16.5536 45.8586 16.8881 45.8586 17.3062 45.8586C19.7312 45.8586 21.9889 46.6948 23.745 48.2836C25.8355 50.1233 27.0062 52.7991 27.0062 55.5586C27.0062 57.231 26.5881 58.9035 25.7519 60.325C23.8286 63.8371 22.8251 67.7673 22.8251 71.8647V72.1992C22.8251 72.9517 23.4105 73.5371 24.1631 73.5371H74.1683C74.9209 73.5371 75.5062 72.9517 75.5062 72.1992V71.8647C75.5062 68.0181 74.4191 64.0879 72.4122 60.0741C71.4924 58.3181 71.1579 56.3948 71.4088 54.4716C71.9105 50.0397 75.5062 46.5276 79.8545 45.9422C82.6976 45.6078 85.3734 46.444 87.5476 48.2836C89.6381 50.1233 90.8088 52.7991 90.8088 55.5586C90.8924 59.2379 88.9691 62.4991 85.8752 64.1716Z" fill="black"/>
<path d="M62.3778 9.31635H36.2045C26.5045 9.31635 18.7278 17.1767 18.7278 26.7931V43.35C21.2364 43.6008 23.745 44.6879 25.6683 46.4439C28.3442 48.7853 29.8493 52.2138 29.8493 55.7258C29.8493 56.8129 29.6821 57.9836 29.4312 59.0707H69.3183C68.9002 57.5655 68.733 55.8931 68.9002 54.3043C69.5692 48.7017 74.0847 44.1026 79.6873 43.4336C79.7709 43.4336 79.7709 43.4336 79.8545 43.4336V26.7931C79.7709 17.1767 71.9942 9.31635 62.3778 9.31635ZM37.7933 46.7784C35.0338 46.7784 32.7761 44.5207 32.7761 41.7612C32.7761 39.0017 35.0338 36.7439 37.7933 36.7439C40.5528 36.7439 42.8105 39.0017 42.8105 41.7612C42.8105 44.5207 40.5528 46.7784 37.7933 46.7784ZM37.7933 28.4655C35.0338 28.4655 32.7761 26.2077 32.7761 23.4482C32.7761 20.6888 35.0338 18.431 37.7933 18.431C40.5528 18.431 42.8105 20.6888 42.8105 23.4482C42.8105 26.2077 40.5528 28.4655 37.7933 28.4655ZM60.7054 46.7784C57.9459 46.7784 55.6881 44.5207 55.6881 41.7612C55.6881 39.0017 57.9459 36.7439 60.7054 36.7439C63.4649 36.7439 65.7226 39.0017 65.7226 41.7612C65.7226 44.5207 63.4649 46.7784 60.7054 46.7784ZM60.7054 28.4655C57.9459 28.4655 55.6881 26.2077 55.6881 23.4482C55.6881 20.6888 57.9459 18.431 60.7054 18.431C63.4649 18.431 65.7226 20.6888 65.7226 23.4482C65.7226 26.2077 63.4649 28.4655 60.7054 28.4655Z" fill="#F1BB2F"/>
<path d="M37.7931 18.3474C35.0336 18.3474 32.7759 20.6052 32.7759 23.3647C32.7759 26.1241 35.0336 28.3819 37.7931 28.3819C40.5526 28.3819 42.8104 26.1241 42.8104 23.3647C42.8104 20.6052 40.5526 18.3474 37.7931 18.3474ZM37.7931 25.7897C36.5388 25.7897 35.4517 24.7026 35.4517 23.4483C35.4517 22.194 36.5388 21.1069 37.7931 21.1069C39.0474 21.1069 40.1345 22.194 40.1345 23.4483C40.1345 24.7026 39.0474 25.7897 37.7931 25.7897Z" fill="black"/>
<path d="M60.7052 18.3474C57.9457 18.3474 55.688 20.6052 55.688 23.3647C55.688 26.1241 57.9457 28.3819 60.7052 28.3819C63.4647 28.3819 65.7225 26.1241 65.7225 23.3647C65.7225 20.6052 63.4647 18.3474 60.7052 18.3474ZM60.7052 25.7897C59.4509 25.7897 58.3639 24.7026 58.3639 23.4483C58.3639 22.194 59.4509 21.1069 60.7052 21.1069C62.0432 21.1069 63.0466 22.194 63.0466 23.4483C63.0466 24.7026 62.0432 25.7897 60.7052 25.7897Z" fill="black"/>
<path d="M37.7931 36.6604C35.0336 36.6604 32.7759 38.9182 32.7759 41.6776C32.7759 44.4371 35.0336 46.6949 37.7931 46.6949C40.5526 46.6949 42.8104 44.4371 42.8104 41.6776C42.8104 38.9182 40.5526 36.6604 37.7931 36.6604ZM37.7931 44.1026C36.5388 44.1026 35.4517 43.0156 35.4517 41.7613C35.4517 40.507 36.5388 39.4199 37.7931 39.4199C39.0474 39.4199 40.1345 40.507 40.1345 41.7613C40.1345 43.0156 39.0474 44.1026 37.7931 44.1026Z" fill="black"/>
<path d="M60.7052 36.6604C57.9457 36.6604 55.688 38.9182 55.688 41.6776C55.688 44.4371 57.9457 46.6949 60.7052 46.6949C63.4647 46.6949 65.7225 44.4371 65.7225 41.6776C65.7225 38.9182 63.4647 36.6604 60.7052 36.6604ZM60.7052 44.1026C59.4509 44.1026 58.3639 43.0156 58.3639 41.7613C58.3639 40.507 59.4509 39.4199 60.7052 39.4199C62.0432 39.4199 63.0466 40.507 63.0466 41.7613C63.0466 43.0156 62.0432 44.1026 60.7052 44.1026Z" fill="black"/>
</svg>
