<svg width="99" height="99" viewBox="0 0 99 99" fill="none" xmlns="http://www.w3.org/2000/svg">
<path d="M79.6859 56.1592L79.5018 56.0671V19.1434C79.5018 17.2097 78.6731 15.4602 77.1077 14.2632C76.0028 13.3424 74.6216 12.882 73.2404 12.882C72.78 12.882 72.2275 12.9741 71.7671 13.0662L22.5969 25.1285C21.3999 25.3127 20.2949 25.681 19.3741 26.4176C17.8088 27.6147 16.9801 29.4562 16.9801 31.2978V66.9324C16.9801 70.5235 19.4663 73.5621 22.8732 74.3908L71.7671 86.1769C72.3196 86.269 72.78 86.3611 73.2404 86.3611C74.6216 86.3611 76.0028 85.9007 77.1077 84.9799C78.581 83.7829 79.5018 82.0334 79.5018 80.0997V72.7334L79.6859 72.5493C80.4226 71.9968 80.883 71.076 80.883 70.1552V58.8295C80.9751 57.8166 80.5146 56.8037 79.6859 56.1592ZM72.5959 16.0127C73.5167 15.7365 74.5295 16.0127 75.3582 16.5652C76.0949 17.2097 76.5553 18.1305 76.5553 19.0513V38.2958L75.9107 37.9275C75.2661 37.4671 74.5295 37.1909 73.7008 37.0067L71.3067 36.4543V30.9295C71.3067 28.9959 70.4781 27.2464 68.9127 26.0493C67.3474 24.8523 65.4137 24.3919 63.5721 24.8523L43.4989 29.7325L29.5949 26.3256L72.5959 16.0127ZM68.2682 30.9295V35.7176L49.9444 31.2978L64.3088 27.7988C65.2296 27.6147 66.2424 27.7988 67.0711 28.3513C67.8078 28.9959 68.2682 29.9166 68.2682 30.9295ZM76.5553 80.0997C76.5553 81.1126 76.0949 82.0334 75.3582 82.5859C74.8058 83.0463 74.0691 83.2304 73.4246 83.2304C73.1483 83.2304 72.9642 83.2304 72.6879 83.1383L23.794 71.3522C21.6762 70.8918 20.2029 68.9582 20.2029 66.8403V31.2978C20.2029 30.285 20.6633 29.3642 21.3999 28.8117C22.1365 28.2592 23.0573 27.983 24.0702 28.1671L72.9642 39.9533C75.082 40.4137 76.5553 42.3473 76.5553 44.4651V54.9621L62.7434 51.6473C61.8226 51.3711 60.9018 51.6473 60.1652 52.1998C59.4286 52.7523 58.9681 53.673 58.9681 54.5938V65.9196C58.9681 67.577 60.0731 68.9582 61.6384 69.3265L76.5553 72.9176V80.0997ZM77.9365 70.1552L62.4672 66.38H62.0988V65.9196V54.6859L77.5681 58.4612H77.9365V58.9216V70.1552Z" fill="black"/>
<path d="M77.8444 58.3691H77.4761L62.0989 54.6859V66.0116V66.472H62.4672L77.9365 70.2473V58.8295L77.8444 58.3691ZM69.189 65.5512C67.9919 65.5512 67.0712 63.9859 67.0712 62.0522C67.0712 60.2107 68.084 58.5532 69.189 58.5532C70.386 58.5532 71.3068 60.1186 71.3068 62.0522C71.3068 63.9859 70.2939 65.5512 69.189 65.5512Z" fill="#F1BB2F"/>
<path d="M76.5553 19.1434V38.3879L75.9107 38.0196C75.2662 37.5592 74.5295 37.2829 73.7008 37.0988L71.3068 36.5463V31.0216C71.3068 29.0879 70.4781 27.3384 68.9127 26.1414C67.3474 24.9443 65.4137 24.4839 63.5721 24.9443L43.4989 29.8245L29.595 26.4176L72.5959 16.0127C73.5167 15.7364 74.5296 16.0127 75.3583 16.5651C76.0949 17.2097 76.5553 18.1305 76.5553 19.1434Z" fill="#F1BB2F"/>
<path d="M71.3068 62.1443C71.3068 63.9858 70.2939 65.6433 69.189 65.6433C67.9919 65.6433 67.0712 64.0779 67.0712 62.1443C67.0712 60.3027 68.084 58.6453 69.189 58.6453C70.2939 58.6453 71.3068 60.2106 71.3068 62.1443Z" fill="black"/>
</svg>
